HIERARCHY
ROOT joint_0
{
	OFFSET 0.000000 0.000000 0.000000
	CHANNELS 6 Xposition Yposition Zposition Zrotation Yrotation Xrotation 
	JOINT joint_1
	{
		OFFSET 7.566162 2.250183 114.799927
		CHANNELS 3 Zrotation Yrotation Xrotation
		JOINT joint_2
		{
			OFFSET -5.201660 -0.414001 104.936035
			CHANNELS 3 Zrotation Yrotation Xrotation
			JOINT joint_3
			{
				OFFSET -6.923584 -0.419739 104.718018
				CHANNELS 3 Zrotation Yrotation Xrotation
				JOINT joint_4
				{
					OFFSET 3.108887 2.881104 149.449951
					CHANNELS 3 Zrotation Yrotation Xrotation
					JOINT joint_5
					{
						OFFSET 19.988770 5.920349 90.786987
						CHANNELS 3 Zrotation Yrotation Xrotation
						End Site
						{
							OFFSET 0.000000 0.000000 0.000000
						}
					}
				}
				JOINT joint_6
				{
					OFFSET 9.283936 -30.015930 84.410034
					CHANNELS 3 Zrotation Yrotation Xrotation
					JOINT joint_7
					{
						OFFSET 47.243164 -155.716736 -23.241089
						CHANNELS 3 Zrotation Yrotation Xrotation
						JOINT joint_8
						{
							OFFSET 31.323730 -15.356873 -268.798950
							CHANNELS 3 Zrotation Yrotation Xrotation
							JOINT joint_9
							{
								OFFSET 28.122314 -2.114624 -262.450012
								CHANNELS 3 Zrotation Yrotation Xrotation
								End Site
								{
									OFFSET 0.000000 0.000000 0.000000
								}
							}
						}
					}
				}
				JOINT joint_10
				{
					OFFSET -5.580566 33.311218 83.498047
					CHANNELS 3 Zrotation Yrotation Xrotation
					JOINT joint_11
					{
						OFFSET -22.773438 160.515381 -27.138062
						CHANNELS 3 Zrotation Yrotation Xrotation
						JOINT joint_12
						{
							OFFSET 27.004395 30.848877 -267.937988
							CHANNELS 3 Zrotation Yrotation Xrotation
							JOINT joint_13
							{
								OFFSET 32.625000 14.824585 -261.518005
								CHANNELS 3 Zrotation Yrotation Xrotation
								End Site
								{
									OFFSET 0.000000 0.000000 0.000000
								}
							}
						}
					}
				}
			}
		}
	}
	JOINT joint_14
	{
		OFFSET 20.623535 -83.447632 -106.174011
		CHANNELS 3 Zrotation Yrotation Xrotation
		JOINT joint_15
		{
			OFFSET 0.661865 -23.563843 -459.915039
			CHANNELS 3 Zrotation Yrotation Xrotation
			JOINT joint_16
			{
				OFFSET -23.461670 -28.727966 -444.760971
				CHANNELS 3 Zrotation Yrotation Xrotation
				JOINT joint_17
				{
					OFFSET 178.992920 54.047363 -80.113001
					CHANNELS 3 Zrotation Yrotation Xrotation
					End Site
					{
						OFFSET 0.000000 0.000000 0.000000
					}
				}
			}
		}
	}
	JOINT joint_18
	{
		OFFSET -19.571533 84.686279 -105.380005
		CHANNELS 3 Zrotation Yrotation Xrotation
		JOINT joint_19
		{
			OFFSET -22.949951 3.639404 -459.933044
			CHANNELS 3 Zrotation Yrotation Xrotation
			JOINT joint_20
			{
				OFFSET -33.690674 4.092651 -445.010971
				CHANNELS 3 Zrotation Yrotation Xrotation
				JOINT joint_21
				{
					OFFSET 187.419678 18.953857 -76.759001
					CHANNELS 3 Zrotation Yrotation Xrotation
					End Site
					{
						OFFSET 0.000000 0.000000 0.000000
					}
				}
			}
		}
	}
}
MOTION
Frames: 13
Frame Time: 0.016667
-3330.724854 905.093750 1110.932007 -16.121752 1.269359 -0.699126 0.088246 0.845663 2.141440 -0.069775 -0.208909 -0.483829 -0.016967 0.218782 0.324207 -0.072769 -0.057380 0.345048 0.000000 0.000000 0.000000 0.623124 1.042934 0.102216 -0.170039 0.660091 -1.531052 0.353142 -2.540584 1.917280 0.000000 0.000000 0.000000 3.701756 2.143218 -1.877157 0.082074 1.588175 -1.470332 -0.245272 -1.463384 -1.210925 0.000000 0.000000 0.000000 -1.193083 2.353092 2.411850 -1.057666 -2.098347 0.015350 -1.130692 -1.727489 0.014594 0.000000 0.000000 0.000000 2.036020 -1.643549 -0.712387 2.003809 2.178394 0.322845 1.907806 -0.851347 0.866381 0.000000 0.000000 0.000000 
-3328.288574 904.734314 1110.546021 -16.151104 1.932288 -0.818766 0.042433 0.681978 2.083136 -0.108723 -0.203809 -0.476908 -0.056908 0.229462 0.315211 -0.066836 -1.044314 0.588058 0.000000 0.000000 0.000000 0.816425 1.362761 -0.105846 -0.145857 1.075802 -1.503438 0.473799 -3.262771 2.492452 0.000000 0.000000 0.000000 3.559412 2.523043 -1.740851 0.134175 1.945586 -1.729699 -0.305081 -2.095999 -1.385955 0.000000 0.000000 0.000000 -1.193754 1.832885 2.484222 -1.061421 -2.238616 0.118585 -1.145258 -1.689144 -0.003284 0.000000 0.000000 0.000000 2.053921 -2.110286 -0.631924 2.026655 1.934047 0.334984 1.938994 -0.823764 0.876486 0.000000 0.000000 0.000000 
-3325.592041 904.340149 1110.224976 -16.202530 2.567556 -0.937190 -0.001567 0.476485 2.021690 -0.142726 -0.178618 -0.461670 -0.092395 0.209110 0.305189 -0.056479 -1.818262 0.776065 0.000000 0.000000 0.000000 0.912709 1.685708 -0.301282 -0.109283 1.459463 -1.526038 0.609265 -3.865976 3.170511 0.000000 0.000000 0.000000 3.461710 2.958208 -1.624329 0.242313 2.397392 -1.752596 -0.406137 -3.063911 -1.804009 0.000000 0.000000 0.000000 -1.193347 1.348279 2.549286 -1.064592 -2.363588 0.227443 -1.157802 -1.653065 -0.019549 0.000000 0.000000 0.000000 2.082384 -2.524891 -0.544782 2.061987 1.680205 0.326785 1.980394 -0.794126 0.890511 0.000000 0.000000 0.000000 
-3322.682129 903.892578 1110.026001 -16.293136 3.118689 -1.052714 -0.048641 0.203484 1.969617 -0.175876 -0.129521 -0.436081 -0.127556 0.146234 0.294731 -0.049577 -2.157665 0.850571 0.000000 0.000000 0.000000 0.878710 1.972418 -0.413465 -0.074773 1.725094 -1.673192 0.730787 -3.984569 3.915279 0.000000 0.000000 0.000000 3.402461 3.444034 -1.615267 0.448651 2.997880 -1.276140 -0.555068 -4.375626 -2.632277 0.000000 0.000000 0.000000 -1.191259 0.945473 2.605474 -1.066605 -2.448842 0.341433 -1.164752 -1.628555 -0.029832 0.000000 0.000000 0.000000 2.132559 -2.821901 -0.442310 2.121999 1.410215 0.282506 2.042603 -0.768610 0.913403 0.000000 0.000000 0.000000 
-3319.511963 903.411316 1109.890991 -16.406329 3.643422 -1.169265 -0.094533 -0.112920 1.919435 -0.204738 -0.067314 -0.406034 -0.158572 0.062109 0.283231 -0.045073 -2.283702 0.864538 0.000000 0.000000 0.000000 0.755268 2.259196 -0.517092 -0.029524 1.956901 -1.875127 0.868413 -3.977178 4.770820 0.000000 0.000000 0.000000 3.381992 3.977861 -1.647282 0.746430 3.700547 -0.537761 -0.717263 -6.029511 -3.704079 0.000000 0.000000 0.000000 -1.188104 0.576301 2.656272 -1.067543 -2.517871 0.460703 -1.168890 -1.607218 -0.037884 0.000000 0.000000 0.000000 2.193880 -3.068417 -0.332217 2.195062 1.130931 0.217860 2.115440 -0.741862 0.940465 0.000000 0.000000 0.000000 
-3316.268799 903.031921 1109.826050 -16.506985 4.114115 -1.264158 -0.109445 -0.315034 1.846721 -0.204843 -0.028646 -0.374327 -0.161290 0.003349 0.268649 -0.036823 -2.437453 0.864070 0.000000 0.000000 0.000000 0.477055 2.574907 -0.761011 0.066134 2.255262 -1.993603 1.104865 -4.690441 5.861380 0.000000 0.000000 0.000000 3.504007 4.515498 -1.557689 1.105258 4.353373 0.032097 -0.859739 -8.210874 -4.765049 0.000000 0.000000 0.000000 -1.181910 0.265158 2.684070 -1.064441 -2.578070 0.562746 -1.169103 -1.586954 -0.043832 0.000000 0.000000 0.000000 2.239723 -3.296494 -0.254694 2.250963 0.933791 0.162150 2.169990 -0.719252 0.960415 0.000000 0.000000 0.000000 
-3313.210693 902.851135 1109.871948 -16.586171 4.489739 -1.317306 -0.069470 -0.317087 1.734832 -0.156060 -0.030463 -0.342777 -0.115925 -0.014259 0.249842 -0.019503 -2.686042 0.841017 0.000000 0.000000 0.000000 -0.085337 2.932142 -1.205764 0.264096 2.652774 -1.942960 1.508038 -6.648159 7.202046 0.000000 0.000000 0.000000 3.899815 5.035752 -1.267589 1.522074 4.876332 0.268520 -0.976097 -11.132583 -5.799987 0.000000 0.000000 0.000000 -1.169263 0.039314 2.669553 -1.053325 -2.626364 0.639344 -1.161796 -1.558403 -0.048919 0.000000 0.000000 0.000000 2.259505 -3.504984 -0.234140 2.277109 0.872507 0.122778 2.194089 -0.698588 0.968067 0.000000 0.000000 0.000000 
-3310.079834 902.771179 1109.987061 -16.651715 4.812149 -1.347298 0.003129 -0.206637 1.598705 -0.078832 -0.053269 -0.311519 -0.042618 -0.007738 0.229183 0.001180 -2.962976 0.803153 0.000000 0.000000 0.000000 -0.814211 3.335375 -1.741832 0.574377 3.094405 -1.872725 2.061733 -9.366711 8.724665 0.000000 0.000000 0.000000 4.448423 5.541509 -0.903406 2.002294 5.347232 0.429369 -1.073872 -14.534662 -6.958868 0.000000 0.000000 0.000000 -1.153621 -0.129198 2.630955 -1.038227 -2.665968 0.698350 -1.150322 -1.533616 -0.050998 0.000000 0.000000 0.000000 2.263314 -3.695742 -0.246255 2.285314 0.893509 0.092723 2.199864 -0.684534 0.968856 0.000000 0.000000 0.000000 
-3306.287842 902.642639 1110.057983 -16.695873 5.175461 -1.388847 0.068071 -0.083237 1.466033 -0.011141 -0.071199 -0.286536 0.021845 0.005531 0.211455 0.015966 -3.299907 0.815051 0.000000 0.000000 0.000000 -1.397315 3.805115 -2.269302 0.946812 3.562778 -1.978981 2.691334 -12.207045 10.421825 0.000000 0.000000 0.000000 4.882651 6.043213 -0.582040 2.512683 5.854754 0.675964 -1.150244 -17.924856 -8.182239 0.000000 0.000000 0.000000 -1.143939 -0.295875 2.605774 -1.028787 -2.714671 0.742535 -1.144802 -1.538789 -0.046623 0.000000 0.000000 0.000000 2.256463 -3.901411 -0.258474 2.283174 0.925374 0.078844 2.196378 -0.691287 0.967912 0.000000 0.000000 0.000000 
-3301.715332 902.395813 1110.043945 -16.714397 5.603216 -1.447642 0.111202 0.041104 1.336107 0.033225 -0.068368 -0.269161 0.064285 0.012353 0.198374 0.021732 -3.728933 0.908993 0.000000 0.000000 0.000000 -1.716419 4.369852 -2.775193 1.340716 4.079123 -2.336094 3.351258 -15.082693 12.329820 0.000000 0.000000 0.000000 5.087788 6.586730 -0.300517 3.077623 6.469494 1.024373 -1.196528 -21.379890 -9.435795 0.000000 0.000000 0.000000 -1.143227 -0.477987 2.608458 -1.028786 -2.769326 0.761997 -1.148376 -1.590192 -0.032262 0.000000 0.000000 0.000000 2.235068 -4.142218 -0.263679 2.267321 0.970333 0.088626 2.180816 -0.726226 0.964823 0.000000 0.000000 0.000000 
-3296.480713 902.100342 1109.984985 -16.711450 6.069282 -1.516112 0.146442 0.183952 1.207333 0.067193 -0.059717 -0.255530 0.096958 0.020583 0.188313 0.024046 -4.220919 1.048398 0.000000 0.000000 0.000000 -1.890865 5.014127 -3.246259 1.736891 4.628997 -2.872288 4.008073 -18.147275 14.348815 0.000000 0.000000 0.000000 5.181106 7.136106 -0.066544 3.669029 7.125665 1.446451 -1.218211 -24.855920 -10.692783 0.000000 0.000000 0.000000 -1.148772 -0.654756 2.623008 -1.034553 -2.834178 0.766845 -1.158341 -1.667663 -0.012781 0.000000 0.000000 0.000000 2.202662 -4.394498 -0.270355 2.241096 1.025108 0.114773 2.156134 -0.776700 0.959501 0.000000 0.000000 0.000000 
-3290.354492 901.814453 1109.881958 -16.691452 6.592215 -1.607994 0.175722 0.290429 1.105825 0.094558 -0.056217 -0.244810 0.123273 0.030517 0.180597 0.025489 -4.709928 1.195850 0.000000 0.000000 0.000000 -1.955265 5.691522 -3.629426 2.078714 5.171038 -3.512049 4.580042 -21.122795 16.346214 0.000000 0.000000 0.000000 5.230316 7.604001 0.063404 4.184307 7.713886 1.933658 -1.224700 -27.731647 -11.806866 0.000000 0.000000 0.000000 -1.160101 -0.822313 2.639930 -1.043360 -2.940114 0.789707 -1.175429 -1.739059 0.001862 0.000000 0.000000 0.000000 2.174526 -4.623290 -0.270281 2.221259 1.009037 0.141985 2.139212 -0.824586 0.956966 0.000000 0.000000 0.000000 
-3283.237793 901.594238 1109.729980 -16.659382 7.191191 -1.736913 0.201035 0.341050 1.045464 0.118382 -0.070650 -0.235611 0.145666 0.049076 0.173772 0.026043 -5.179043 1.343023 0.000000 0.000000 0.000000 -1.864968 6.414316 -3.911686 2.331165 5.721024 -4.240713 5.028145 -23.929501 18.310774 0.000000 0.000000 0.000000 5.227881 7.975814 0.116399 4.579973 8.201058 2.402852 -1.217778 -29.765982 -12.654332 0.000000 0.000000 0.000000 -1.176950 -0.980300 2.661439 -1.052816 -3.123988 0.848704 -1.202084 -1.777458 0.002522 0.000000 0.000000 0.000000 2.164235 -4.819300 -0.261258 2.221787 0.873067 0.173619 2.144844 -0.853684 0.961565 0.000000 0.000000 0.000000 
